<svg aria-hidden="true" style="position: absolute; width: 0; height: 0; overflow: hidden;" version="1.1" xmlns="http://www.w3.org/2000/svg" xmlns:xlink="http://www.w3.org/1999/xlink">
<defs>
<symbol id="icon-empty-wallet" viewBox="0 0 32 32">
<path  style="fill: var(--color1, #f90)" d="M23.653 30.333h-15.307c-3.32 0-6.013-2.693-6.013-6.013v-8.973c0-3.32 2.693-6.013 6.013-6.013h15.307c3.32 0 6.013 2.693 6.013 6.013v1.92c0 0.547-0.453 1-1 1h-2.693c-0.467 0-0.893 0.173-1.2 0.493l-0.013 0.013c-0.373 0.36-0.547 0.853-0.507 1.36 0.080 0.88 0.92 1.587 1.88 1.587h2.533c0.547 0 1 0.453 1 1v1.587c0 3.333-2.693 6.027-6.013 6.027zM8.347 11.333c-2.213 0-4.013 1.8-4.013 4.013v8.973c0 2.213 1.8 4.013 4.013 4.013h15.307c2.213 0 4.013-1.8 4.013-4.013v-0.587h-1.533c-2.013 0-3.72-1.493-3.88-3.413-0.107-1.093 0.293-2.173 1.093-2.96 0.693-0.707 1.627-1.093 2.627-1.093h1.693v-0.92c0-2.213-1.8-4.013-4.013-4.013h-15.307z"></path>
<path  style="fill: var(--color1, #f90)" d="M3.333 17.547c-0.547 0-1-0.453-1-1v-6.093c0-1.987 1.253-3.787 3.107-4.493l10.587-4c1.093-0.413 2.307-0.267 3.253 0.4 0.96 0.667 1.52 1.747 1.52 2.907v5.067c0 0.547-0.453 1-1 1s-1-0.453-1-1v-5.067c0-0.507-0.24-0.973-0.667-1.267s-0.933-0.36-1.413-0.173l-10.587 4c-1.080 0.413-1.813 1.467-1.813 2.627v6.093c0.013 0.56-0.44 1-0.987 1z"></path>
<path  style="fill: var(--color1, #f90)" d="M26.134 23.734c-2.013 0-3.72-1.493-3.88-3.413-0.107-1.107 0.293-2.187 1.093-2.973 0.68-0.693 1.613-1.080 2.613-1.080h2.773c1.32 0.040 2.333 1.080 2.333 2.36v2.747c0 1.28-1.013 2.32-2.293 2.36h-2.64zM28.707 18.267h-2.733c-0.467 0-0.893 0.173-1.2 0.493-0.387 0.373-0.573 0.88-0.52 1.387 0.080 0.88 0.92 1.587 1.88 1.587h2.613c0.173 0 0.333-0.16 0.333-0.36v-2.747c0-0.2-0.16-0.347-0.373-0.36z"></path>
<path  style="fill: var(--color1, #f90)" d="M18.667 17h-9.333c-0.547 0-1-0.453-1-1s0.453-1 1-1h9.333c0.547 0 1 0.453 1 1s-0.453 1-1 1z"></path>
</symbol>
<symbol id="icon-code" viewBox="0 0 32 32">
<path  style="fill: var(--color2, #ff007a)" d="M12.001 23.667c-0.147 0-0.307-0.040-0.44-0.107-1.027-0.52-1.907-1.293-2.547-2.253-0.533-0.8-0.533-1.827 0-2.627 0.64-0.96 1.52-1.733 2.547-2.24 0.493-0.253 1.093-0.040 1.347 0.453s0.053 1.093-0.453 1.347c-0.72 0.36-1.333 0.907-1.773 1.573-0.080 0.12-0.080 0.28 0 0.413 0.44 0.667 1.053 1.213 1.773 1.573 0.493 0.253 0.693 0.853 0.453 1.347-0.187 0.32-0.547 0.52-0.907 0.52z"></path>
<path  style="fill: var(--color2, #ff007a)" d="M20.279 23.666c-0.373 0-0.72-0.2-0.893-0.547-0.253-0.493-0.053-1.093 0.453-1.347 0.72-0.36 1.333-0.907 1.773-1.573 0.080-0.12 0.080-0.28 0-0.413-0.44-0.667-1.053-1.213-1.773-1.573-0.493-0.253-0.693-0.853-0.453-1.347 0.253-0.493 0.853-0.693 1.347-0.453 1.027 0.52 1.907 1.293 2.547 2.253 0.533 0.8 0.533 1.827 0 2.627-0.64 0.96-1.52 1.733-2.547 2.24-0.16 0.093-0.307 0.133-0.453 0.133z"></path>
<path  style="fill: var(--color2, #ff007a)" d="M20 30.333h-8c-7.24 0-10.333-3.093-10.333-10.333v-8c0-7.24 3.093-10.333 10.333-10.333h8c7.24 0 10.333 3.093 10.333 10.333v8c0 7.24-3.093 10.333-10.333 10.333zM12 3.667c-6.147 0-8.333 2.187-8.333 8.333v8c0 6.147 2.187 8.333 8.333 8.333h8c6.147 0 8.333-2.187 8.333-8.333v-8c0-6.147-2.187-8.333-8.333-8.333h-8z"></path>
<path  style="fill: var(--color2, #ff007a)" d="M2.974 11.68c-0.547 0-1-0.453-1-1s0.44-1 1-1l25.627-0.013c0.547 0 1 0.453 1 1s-0.44 1-1 1l-25.627 0.013z"></path>
</symbol>
<symbol id="icon-chart-square" viewBox="0 0 32 32">
<path  style="fill: var(--color3, #00da71)" d="M13.48 24.2h-5.053c-0.547 0-1-0.453-1-1v-6.827c0-1.387 1.133-2.52 2.52-2.52h3.533c0.547 0 1 0.453 1 1v8.333c0 0.56-0.453 1.014-1 1.014zM9.427 22.2h3.053v-6.333h-2.533c-0.28 0-0.52 0.227-0.52 0.52v5.814z"></path>
<path  style="fill: var(--color3, #00da71)" d="M18.519 24.2h-5.053c-0.547 0-1-0.453-1-1v-12.88c0-1.387 1.133-2.52 2.52-2.52h2.027c1.387 0 2.52 1.133 2.52 2.52v12.88c-0.013 0.547-0.453 1-1.013 1zM14.479 22.2h3.053v-11.88c0-0.28-0.227-0.52-0.52-0.52h-2.027c-0.28 0-0.52 0.227-0.52 0.52v11.88h0.013z"></path>
<path  style="fill: var(--color3, #00da71)" d="M23.574 24.2h-5.053c-0.547 0-1-0.453-1-1v-6.067c0-0.547 0.453-1 1-1h3.533c1.387 0 2.52 1.133 2.52 2.52v4.547c0 0.547-0.44 1-1 1zM19.521 22.2h3.053v-3.547c0-0.28-0.227-0.52-0.52-0.52h-2.533v4.067z"></path>
<path  style="fill: var(--color3, #00da71)" d="M20 30.333h-8c-7.24 0-10.333-3.093-10.333-10.333v-8c0-7.24 3.093-10.333 10.333-10.333h8c7.24 0 10.333 3.093 10.333 10.333v8c0 7.24-3.093 10.333-10.333 10.333zM12 3.667c-6.147 0-8.333 2.187-8.333 8.333v8c0 6.147 2.187 8.333 8.333 8.333h8c6.147 0 8.333-2.187 8.333-8.333v-8c0-6.147-2.187-8.333-8.333-8.333h-8z"></path>
</symbol>
<symbol id="icon-box-search" viewBox="0 0 32 32">
<path  style="fill: var(--color4, #2639ed)" d="M15.999 17.733c-0.173 0-0.347-0.040-0.507-0.133l-11.773-6.813c-0.48-0.28-0.64-0.893-0.36-1.373s0.88-0.64 1.373-0.36l11.267 6.52 11.2-6.48c0.48-0.28 1.093-0.107 1.373 0.36 0.28 0.48 0.107 1.093-0.36 1.373l-11.693 6.773c-0.173 0.080-0.347 0.133-0.52 0.133z"></path>
<path  style="fill: var(--color4, #2639ed)" d="M16 29.813c-0.547 0-1-0.453-1-1v-12.093c0-0.547 0.453-1 1-1s1 0.453 1 1v12.093c0 0.547-0.453 1-1 1z"></path>
<path  style="fill: var(--color4, #2639ed)" d="M15.999 30.334c-1.213 0-2.373-0.28-3.253-0.773l-7.12-3.947c-1.933-1.067-3.453-3.64-3.453-5.854v-7.547c0-2.213 1.52-4.773 3.453-5.853l7.12-3.947c1.813-1.013 4.667-1.013 6.493 0l7.12 3.947c1.933 1.067 3.453 3.64 3.453 5.853v4.88c0 0.547-0.453 1-1 1s-1-0.453-1-1v-4.88c0-1.467-1.133-3.387-2.413-4.093l-7.12-3.947c-1.213-0.68-3.333-0.68-4.547 0l-7.12 3.947c-1.293 0.72-2.413 2.627-2.413 4.093v7.547c0 1.467 1.133 3.387 2.413 4.093l7.12 3.947c1.173 0.653 3.387 0.653 4.547 0 0.48-0.267 1.093-0.093 1.36 0.387s0.093 1.093-0.387 1.36c-0.88 0.507-2.040 0.787-3.253 0.787z"></path>
<path  style="fill: var(--color4, #2639ed)" d="M25.6 29.533c-2.907 0-5.267-2.36-5.267-5.267s2.36-5.267 5.267-5.267 5.267 2.36 5.267 5.267c0 2.907-2.36 5.267-5.267 5.267zM25.6 21c-1.8 0-3.267 1.467-3.267 3.267s1.467 3.267 3.267 3.267c1.8 0 3.267-1.467 3.267-3.267s-1.467-3.267-3.267-3.267z"></path>
<path  style="fill: var(--color4, #2639ed)" d="M30.666 30.333c-0.253 0-0.507-0.093-0.707-0.293l-1.333-1.333c-0.387-0.387-0.387-1.027 0-1.413s1.027-0.387 1.413 0l1.333 1.333c0.387 0.387 0.387 1.027 0 1.413-0.2 0.2-0.453 0.293-0.707 0.293z"></path>
</symbol>
</defs>
</svg>
